<?xml version="1.0" encoding="UTF-8"?>
<!DOCTYPE svg PUBLIC "-//W3C//DTD SVG 1.1//EN" "http://www.w3.org/Graphics/SVG/1.1/DTD/svg11.dtd">
<svg xmlns="http://www.w3.org/2000/svg" version="1.1" width="328px" height="400px" style="shape-rendering:geometricPrecision; text-rendering:geometricPrecision; image-rendering:optimizeQuality; fill-rule:evenodd; clip-rule:evenodd" xmlns:xlink="http://www.w3.org/1999/xlink">
<g><path style="opacity:0.955" fill="#000000" d="M 231.5,-0.5 C 240.5,-0.5 249.5,-0.5 258.5,-0.5C 271.704,7.85741 278.038,20.0241 277.5,36C 276.397,51.229 273.397,66.0624 268.5,80.5C 268.709,81.086 269.043,81.586 269.5,82C 277.202,82.2938 284.869,82.9605 292.5,84C 299.132,87.0969 301.299,92.2636 299,99.5C 296.31,108.016 290.477,112.016 281.5,111.5C 274.337,110.811 267.17,110.145 260,109.5C 258.833,109.833 257.667,110.167 256.5,110.5C 245.438,132.814 230.438,151.981 211.5,168C 198.885,176.713 185.218,179.047 170.5,175C 166.385,172.552 162.552,169.719 159,166.5C 150.515,153.461 145.515,139.128 144,123.5C 138.541,136.42 131.541,148.42 123,159.5C 113.559,170.554 101.559,176.554 87,177.5C 76.0775,176.373 67.4108,171.373 61,162.5C 51.9483,144.963 46.9483,126.296 46,106.5C 44.4325,75.5794 46.4325,44.9127 52,14.5C 57.1396,1.88448 66.3063,-2.28219 79.5,2C 83.0579,3.89172 85.5579,6.72506 87,10.5C 87.6667,15.8333 87.6667,21.1667 87,26.5C 81.2946,59.0333 80.2946,91.7 84,124.5C 88.873,146.967 97.2064,148.3 109,128.5C 121.341,105.819 130.341,81.8185 136,56.5C 139.203,42.948 141.87,29.2813 144,15.5C 148.341,3.57446 156.841,-1.25887 169.5,1C 177.018,2.99322 180.685,7.99322 180.5,16C 174.582,50.6227 173.082,85.456 176,120.5C 176.611,127.278 178.611,133.611 182,139.5C 187.346,143.314 192.846,143.48 198.5,140C 211.785,127.765 221.285,113.265 227,96.5C 211.961,84.5984 204.461,68.9317 204.5,49.5C 204.017,32.7742 209.351,18.2742 220.5,6C 224.096,3.53937 227.763,1.3727 231.5,-0.5 Z M 239.5,27.5 C 241.017,27.5106 242.184,28.1772 243,29.5C 244.147,32.3988 244.981,35.3988 245.5,38.5C 244.93,49.1818 242.764,59.5151 239,69.5C 234.51,62.5463 232.343,54.8797 232.5,46.5C 233.101,41.789 233.935,37.1223 235,32.5C 236.059,30.3408 237.559,28.6741 239.5,27.5 Z"/></g>
<g><path style="opacity:0.162" fill="#000000" d="M 4.5,391.5 C 13.624,391.653 22.7906,392.32 32,393.5C 34.0408,392.577 36.2075,392.244 38.5,392.5C 38.5,393.5 38.5,394.5 38.5,395.5C 27.1039,395.71 15.7706,395.71 4.5,395.5C 4.5,394.167 4.5,392.833 4.5,391.5 Z"/></g>
</svg>
